# Blender v2.92.0 OBJ File: 'PoolTest.blend'
# www.blender.org
mtllib Pool.mtl
o Cube
v 15.792776 -2.023155 -15.792776
v 15.792776 -2.023155 15.792776
v -15.792776 -2.023155 -15.792776
v -15.792776 -2.023155 15.792776
v 20.000000 3.000000 -20.000000
v 20.000000 -3.000000 -20.000000
v 20.000000 3.000000 20.000000
v 20.000000 -3.000000 20.000000
v -20.000000 3.000000 -20.000000
v -20.000000 -3.000000 -20.000000
v -20.000000 3.000000 20.000000
v -20.000000 -3.000000 20.000000
v 15.792776 3.000000 15.792776
v -15.792776 3.000000 15.792776
v -15.792776 3.000000 -15.792776
v 15.792776 3.000000 -15.792776
vt 0.625000 0.750000
vt 0.375000 1.000000
vt 0.375000 0.750000
vt 0.625000 0.000000
vt 0.375000 0.250000
vt 0.375000 0.000000
vt 0.375000 0.500000
vt 0.125000 0.750000
vt 0.125000 0.500000
vt 0.625000 0.500000
vt 0.625000 0.250000
vt 0.375000 1.000000
vt 0.584298 0.750000
vt 0.375000 0.750000
vt 0.375000 0.000000
vt 0.584298 0.250000
vt 0.584298 0.000000
vt 0.125000 0.500000
vt 0.375000 0.500000
vt 0.584298 0.500000
vt 0.375000 0.250000
vt 0.875000 0.500000
vt 0.651295 0.526295
vt 0.875000 0.750000
vt 0.651295 0.723705
vt 0.848705 0.723705
vt 0.625000 1.000000
vt 0.584298 1.000000
vt 0.125000 0.750000
vt 0.848705 0.526295
vn 0.0000 0.0000 1.0000
vn -1.0000 0.0000 0.0000
vn 0.0000 -1.0000 0.0000
vn 1.0000 0.0000 0.0000
vn 0.0000 0.0000 -1.0000
vn 0.0000 1.0000 0.0000
usemtl Material
s off
f 7/1/1 12/2/1 8/3/1
f 11/4/2 10/5/2 12/6/2
f 6/7/3 12/8/3 10/9/3
f 5/10/4 8/3/4 6/7/4
f 9/11/5 6/7/5 10/5/5
f 4/12/5 13/13/5 2/14/5
f 4/15/4 15/16/4 14/17/4
f 3/18/6 2/14/6 1/19/6
f 2/14/2 16/20/2 1/19/2
f 3/21/1 16/20/1 15/16/1
f 5/10/6 9/22/6 16/23/6
f 11/24/6 13/25/6 14/26/6
f 7/1/1 11/27/1 12/2/1
f 11/4/2 9/11/2 10/5/2
f 6/7/3 8/3/3 12/8/3
f 5/10/4 7/1/4 8/3/4
f 9/11/5 5/10/5 6/7/5
f 4/12/5 14/28/5 13/13/5
f 4/15/4 3/21/4 15/16/4
f 3/18/6 4/29/6 2/14/6
f 2/14/2 13/13/2 16/20/2
f 3/21/1 1/19/1 16/20/1
f 13/25/6 7/1/6 5/10/6
f 9/22/6 11/24/6 14/26/6
f 9/22/6 14/26/6 15/30/6
f 16/23/6 13/25/6 5/10/6
f 9/22/6 15/30/6 16/23/6
f 11/24/6 7/1/6 13/25/6
